HIERARCHY
ROOT hip
{
  OFFSET 0 0 0
  CHANNELS 6 Xposition Yposition Zposition Zrotation Yrotation Xrotation
  JOINT abdomen
  {
    OFFSET 0 20.6881 -0.73152
    CHANNELS 3 Zrotation Xrotation Yrotation
    JOINT chest
    {
      OFFSET 0 11.7043 -0.48768
      CHANNELS 3 Zrotation Xrotation Yrotation
      JOINT neck
      {
        OFFSET 0 22.1894 -2.19456
        CHANNELS 3 Zrotation Xrotation Yrotation
        JOINT head
        {
          OFFSET -0.24384 7.07133 1.2192
          CHANNELS 3 Zrotation Xrotation Yrotation
          JOINT leftEye
          {
            OFFSET 4.14528 8.04674 8.04672
            CHANNELS 3 Zrotation Xrotation Yrotation
            End Site
            {
              OFFSET 1 0 0
            }
          }
          JOINT rightEye
          {
            OFFSET -3.6576 8.04674 8.04672
            CHANNELS 3 Zrotation Xrotation Yrotation
            End Site
            {
              OFFSET 1 0 0
            }
          }
        }
      }
      JOINT rCollar
      {
        OFFSET -2.68224 19.2634 -4.8768
        CHANNELS 3 Zrotation Xrotation Yrotation
        JOINT rShldr
        {
          OFFSET -8.77824 -1.95073 1.46304
          CHANNELS 3 Zrotation Xrotation Yrotation
          JOINT rForeArm
          {
            OFFSET -28.1742 -1.7115 0.48768
            CHANNELS 3 Zrotation Xrotation Yrotation
            JOINT rHand
            {
              OFFSET -22.5879 0.773209 7.07136
              CHANNELS 3 Zrotation Xrotation Yrotation
              JOINT rThumb1
              {
                OFFSET -1.2192 -0.487915 3.41376
                CHANNELS 3 Zrotation Xrotation Yrotation
                JOINT rThumb2
                {
                  OFFSET -3.37035 -0.52449 3.41376
                  CHANNELS 3 Zrotation Xrotation Yrotation
                  End Site
                  {
                    OFFSET -1.78271 -1.18214 1.43049
                  }
                }
              }
              JOINT rIndex1
              {
                OFFSET -7.75947 0.938293 5.60832
                CHANNELS 3 Zrotation Xrotation Yrotation
                JOINT rIndex2
                {
                  OFFSET -2.54057 -0.884171 1.56538
                  CHANNELS 3 Zrotation Xrotation Yrotation
                  End Site
                  {
                    OFFSET -1.62519 -0.234802 1.16502
                  }
                }
              }
              JOINT rMid1
              {
                OFFSET -8.24714 1.18213 3.41376
                CHANNELS 3 Zrotation Xrotation Yrotation
                JOINT rMid2
                {
                  OFFSET -3.10165 -0.590103 1.0647
                  CHANNELS 3 Zrotation Xrotation Yrotation
                  End Site
                  {
                    OFFSET -2.48547 -0.328903 0.83742
                  }
                }
              }
              JOINT rRing1
              {
                OFFSET -8.82822 0.546677 1.51678
                CHANNELS 3 Zrotation Xrotation Yrotation
                JOINT rRing2
                {
                  OFFSET -2.60934 -0.819778 -0.0198488
                  CHANNELS 3 Zrotation Xrotation Yrotation
                  End Site
                  {
                    OFFSET -2.33842 -0.294052 0.168128
                  }
                }
              }
              JOINT rPinky1
              {
                OFFSET -8.27202 -0.0477905 -0.4584
                CHANNELS 3 Zrotation Xrotation Yrotation
                JOINT rPinky2
                {
                  OFFSET -1.82734 -0.647385 -0.700984
                  CHANNELS 3 Zrotation Xrotation Yrotation
                  End Site
                  {
                    OFFSET -1.69225 -0.51767 -0.607171
                  }
                }
              }
            }
          }
        }
      }
      JOINT lCollar
      {
        OFFSET 2.68224 19.2634 -4.8768
        CHANNELS 3 Zrotation Xrotation Yrotation
        JOINT lShldr
        {
          OFFSET 8.77824 -1.95073 1.46304
          CHANNELS 3 Zrotation Xrotation Yrotation
          JOINT lForeArm
          {
            OFFSET 28.1742 -1.7115 0.48768
            CHANNELS 3 Zrotation Xrotation Yrotation
            JOINT lHand
            {
              OFFSET 22.5879 0.773209 7.07136
              CHANNELS 3 Zrotation Xrotation Yrotation
              JOINT lThumb1
              {
                OFFSET 1.2192 -0.487915 3.41376
                CHANNELS 3 Zrotation Xrotation Yrotation
                JOINT lThumb2
                {
                  OFFSET 3.37035 -0.52449 3.41376
                  CHANNELS 3 Zrotation Xrotation Yrotation
                  End Site
                  {
                    OFFSET 1.78271 -1.18214 1.43049
                  }
                }
              }
              JOINT lIndex1
              {
                OFFSET 7.75947 0.938293 5.60832
                CHANNELS 3 Zrotation Xrotation Yrotation
                JOINT lIndex2
                {
                  OFFSET 2.54057 -0.884171 1.56538
                  CHANNELS 3 Zrotation Xrotation Yrotation
                  End Site
                  {
                    OFFSET 1.62519 -0.234802 1.16502
                  }
                }
              }
              JOINT lMid1
              {
                OFFSET 8.24714 1.18213 3.41376
                CHANNELS 3 Zrotation Xrotation Yrotation
                JOINT lMid2
                {
                  OFFSET 3.10165 -0.590103 1.0647
                  CHANNELS 3 Zrotation Xrotation Yrotation
                  End Site
                  {
                    OFFSET 2.48547 -0.328903 0.83742
                  }
                }
              }
              JOINT lRing1
              {
                OFFSET 8.82822 0.546677 1.51678
                CHANNELS 3 Zrotation Xrotation Yrotation
                JOINT lRing2
                {
                  OFFSET 2.60934 -0.819778 -0.0198488
                  CHANNELS 3 Zrotation Xrotation Yrotation
                  End Site
                  {
                    OFFSET 2.33842 -0.294052 0.168128
                  }
                }
              }
              JOINT lPinky1
              {
                OFFSET 8.27202 -0.0477905 -0.4584
                CHANNELS 3 Zrotation Xrotation Yrotation
                JOINT lPinky2
                {
                  OFFSET 1.82734 -0.647385 -0.700984
                  CHANNELS 3 Zrotation Xrotation Yrotation
                  End Site
                  {
                    OFFSET 1.69225 -0.51767 -0.607171
                  }
                }
              }
            }
          }
        }
      }
    }
  }
  JOINT rButtock
  {
    OFFSET -8.77824 4.35084 1.2192
    CHANNELS 3 Zrotation Xrotation Yrotation
    JOINT rThigh
    {
      OFFSET 0 -1.70687 -2.19456
      CHANNELS 3 Zrotation Xrotation Yrotation
      JOINT rShin
      {
        OFFSET 0 -36.8199 0.73152
        CHANNELS 3 Zrotation Xrotation Yrotation
        JOINT rFoot
        {
          OFFSET 0.73152 -45.1104 -5.12064
          CHANNELS 3 Zrotation Xrotation Yrotation
          End Site
          {
            OFFSET -1.1221 -3.69964 12.103
          }
        }
      }
    }
  }
  JOINT lButtock
  {
    OFFSET 8.77824 4.35084 1.2192
    CHANNELS 3 Zrotation Xrotation Yrotation
    JOINT lThigh
    {
      OFFSET 0 -1.70687 -2.19456
      CHANNELS 3 Zrotation Xrotation Yrotation
      JOINT lShin
      {
        OFFSET 0 -36.8199 0.73152
        CHANNELS 3 Zrotation Xrotation Yrotation
        JOINT lFoot
        {
          OFFSET -0.73152 -45.1104 -5.12064
          CHANNELS 3 Zrotation Xrotation Yrotation
          End Site
          {
            OFFSET 1.1221 -3.69964 12.103
          }
        }
      }
    }
  }
}
MOTION
Frames:	9
Frame Time:	0.00833333
5.51142 85.2343 -194.728 0.0 0.0 0.0 0.705189 -0.00371385 0.0199543 0.194579 -0.00526912 0.0337141 1.12166e-14 0.0 -3.72721e-17 3.3576e-14 3.18055e-15 -1.25793e-16 -0.0 0.0 0.0 -0.0 0.0 0.0 5.46536e-15 -1.32005e-17 9.93923e-17 1.18884e-13 -2.48481e-16 9.93923e-16 2.01771e-12 -6.17624e-13 -2.8625e-14 2.31175e-11 5.33712e-13 -4.13472e-14 5.45239e-11 -1.85568e-13 -1.43125e-13 9.41567e-11 -3.27597e-13 -2.56035e-13 5.4529e-11 -1.8487e-13 -1.52667e-13 7.73091 5.47488 0.417314 5.45244e-11 -1.85168e-13 -1.43125e-13 2.90554 0.965183 0.102902 5.45367e-11 -1.84671e-13 -1.46306e-13 10.2786 0.731801 0.0259123 5.45256e-11 -1.84075e-13 -1.43125e-13 2.22167 -0.733487 -0.20892 5.46816e-15 -1.41712e-17 -9.93923e-17 1.14953e-13 -4.22417e-16 -7.95139e-16 2.0192e-12 5.90987e-13 -2.54444e-14 2.31098e-11 -6.73955e-13 -3.18055e-14 5.45184e-11 -1.82741e-13 -1.62208e-13 9.41627e-11 -3.14875e-13 -2.62396e-13 5.45135e-11 -1.80496e-13 -1.52667e-13 -7.73091 5.47488 -0.417314 5.4518e-11 -1.82286e-13 -1.52667e-13 -2.90554 0.965183 -0.102902 5.45127e-11 -1.82584e-13 -1.51871e-13 -10.2786 0.731801 -0.0259123 5.45225e-11 -1.82484e-13 -1.59028e-13 -2.22167 -0.733487 0.20892 -2.03217e-16 0.0 -3.88251e-19 1.03767 -4.8484 -0.0878813 -0.00129058 3.22991 0.00172038 -0.507984 1.61857 0.0909485 2.03217e-16 0.0 3.88251e-19 0.0358155 -2.16336 0.0186165 0.0086454 -1.63356 0.0730536 0.498164 3.79688 -0.134159
5.20522 83.4869 -196.69 -2.0364 1.8222 6.5781 2.09431 -0.133409 -1.42745 0.419883 -0.649123 -0.373085 -0.571831 -0.563668 -0.087491 0.218543 -2.52548 0.0234135 -0.0 0.0 0.0 -0.0 0.0 0.0 4.15849e-14 2.42413e-14 -6.95009e-15 21.011 -0.579715 -1.77911 -2.95254 -1.16083 4.78927 0.00207935 -1.01214 -0.142167 -3.02074e-10 -3.74692e-11 2.31714e-10 -5.21565e-10 -6.46229e-11 4.00509e-10 -3.0207e-10 -3.74688e-11 2.31706e-10 7.73091 5.47488 0.417314 -3.02073e-10 -3.74685e-11 2.31715e-10 2.90554 0.965183 0.102902 -3.02064e-10 -3.74683e-11 2.31714e-10 10.2786 0.731801 0.0259123 -3.02075e-10 -3.74666e-11 2.31721e-10 2.22167 -0.733487 -0.20892 4.15653e-14 2.42422e-14 -7.15004e-15 -22.2928 5.38714 1.69667 5.03071 -2.47441 -7.64199 -0.00493791 1.55906 -0.218819 -5.07241e-10 -5.52404e-10 -3.42714e-10 -8.79274e-10 -9.55699e-10 -5.8944e-10 -5.07249e-10 -5.52404e-10 -3.42703e-10 -7.73091 5.47488 -0.417314 -5.07244e-10 -5.52406e-10 -3.42708e-10 -2.90554 0.965183 -0.102902 -5.07245e-10 -5.52404e-10 -3.42706e-10 -10.2786 0.731801 -0.0259123 -5.07236e-10 -5.52404e-10 -3.42713e-10 -2.22167 -0.733487 0.20892 -2.03217e-16 0.0 -3.88251e-19 2.47024 -8.23873 0.290335 0.013656 10.0161 0.124469 -0.74276 -3.4443 -1.75947 2.03217e-16 0.0 3.88251e-19 0.20085 -6.62151 -1.85175 -0.00937115 6.92505 -0.0733622 0.636319 -1.53733 1.29565
5.20434 83.4848 -196.699 -1.9948 1.695 6.6231 3.5482 -0.269467 -2.95702 0.650373 -1.3305 -0.803064 -1.18 -1.16349 -0.180518 0.451982 -5.19427 0.0480157 -0.0 0.0 0.0 -0.0 0.0 0.0 8.31995e-14 5.20741e-14 -1.60488e-14 43.1811 -1.19568 -3.6638 -5.86309 -2.36066 9.85767 -0.00118439 -2.07798 -0.292028 -7.17142e-10 -9.31921e-11 4.59327e-10 -1.2382e-09 -1.60871e-10 7.9385e-10 -7.1714e-10 -9.31921e-11 4.59319e-10 7.73091 5.47488 0.417314 -7.17142e-10 -9.3191e-11 4.59329e-10 2.90554 0.965183 0.102902 -7.17136e-10 -9.3191e-11 4.59329e-10 10.2786 0.731801 0.0259123 -7.17148e-10 -9.31882e-11 4.5934e-10 2.22167 -0.733487 -0.20892 8.31546e-14 5.2077e-14 -1.62506e-14 -46.2126 11.0674 3.54091 9.63901 -4.9444 -15.7677 0.00280455 3.20396 -0.450235 -1.13393e-09 -1.15013e-09 -7.2446e-10 -1.96517e-09 -1.98976e-09 -1.24603e-09 -1.13394e-09 -1.15013e-09 -7.24448e-10 -7.73091 5.47488 -0.417314 -1.13393e-09 -1.15014e-09 -7.24458e-10 -2.90554 0.965183 -0.102902 -1.13393e-09 -1.15013e-09 -7.24455e-10 -10.2786 0.731801 -0.0259123 -1.13392e-09 -1.15013e-09 -7.24462e-10 -2.22167 -0.733487 0.20892 -2.03217e-16 0.0 -3.88251e-19 4.02712 -11.8226 0.696911 -0.00332733 17.1904 0.262033 -1.34985 -8.78222 -3.75256 2.03217e-16 0.0 3.88251e-19 0.04641 -11.3157 -3.87922 0.0205758 15.9714 -0.23609 1.07276 -7.16983 2.82449
5.16163 83.4971 -196.684 -2.1918 1.6891 6.4797 4.85291 -0.391805 -4.32234 0.84305 -1.93646 -1.18729 -1.72066 -1.69099 -0.262575 0.661869 -7.57643 0.0707903 -0.0 0.0 0.0 -0.0 0.0 0.0 1.13824e-13 7.27504e-14 -2.1049e-14 62.9251 -1.73244 -5.3395 -8.28136 -3.38529 14.3905 -0.00884837 -3.03636 -0.427035 -1.01527e-09 -1.12037e-10 6.95429e-10 -1.75301e-09 -1.93213e-10 1.20204e-09 -1.01527e-09 -1.12037e-10 6.95423e-10 7.73091 5.47488 0.417314 -1.01527e-09 -1.12035e-10 6.95432e-10 2.90554 0.965183 0.102902 -1.01526e-09 -1.12035e-10 6.95435e-10 10.2786 0.731801 0.0259123 -1.01528e-09 -1.12032e-10 6.95448e-10 2.22167 -0.733487 -0.20892 1.1376e-13 7.2755e-14 -2.12513e-14 -67.8673 16.1035 5.27507 13.1587 -6.89616 -23.081 0.0210126 4.67692 -0.658407 -1.63076e-09 -1.65685e-09 -1.02782e-09 -2.82615e-09 -2.86647e-09 -1.7678e-09 -1.63077e-09 -1.65685e-09 -1.02781e-09 -7.73091 5.47488 -0.417314 -1.63077e-09 -1.65685e-09 -1.02782e-09 -2.90554 0.965183 -0.102902 -1.63076e-09 -1.65685e-09 -1.02782e-09 -10.2786 0.731801 -0.0259123 -1.63075e-09 -1.65685e-09 -1.02782e-09 -2.22167 -0.733487 0.20892 -2.03217e-16 0.0 -3.88251e-19 5.47399 -15.0172 1.07383 -0.0507623 23.5881 0.397493 -2.21415 -13.5124 -5.60635 2.03217e-16 0.0 3.88251e-19 -0.369752 -15.4732 -5.765 0.0948444 24.0418 -0.399157 1.72374 -12.1744 4.24902
5.23749 83.4908 -196.715 -1.8357 1.6513 6.5358 5.7983 -0.480773 -5.27693 0.960594 -2.35421 -1.45655 -2.08878 -2.03767 -0.317101 0.808588 -9.24202 0.0884893 -0.0 0.0 0.0 -0.0 0.0 0.0 1.16973e-13 7.55353e-14 -1.58034e-14 76.6817 -2.07773 -6.49052 -9.87265 -4.0643 17.5629 -0.0170585 -3.72613 -0.52442 -1.02104e-09 -3.86851e-11 9.52757e-10 -1.76324e-09 -6.57898e-11 1.64736e-09 -1.02104e-09 -3.86851e-11 9.52751e-10 7.73091 5.47488 0.417314 -1.02104e-09 -3.86835e-11 9.52761e-10 2.90554 0.965183 0.102902 -1.02104e-09 -3.86839e-11 9.52765e-10 10.2786 0.731801 0.0259123 -1.02105e-09 -3.86799e-11 9.5278e-10 2.22167 -0.733487 -0.20892 1.16905e-13 7.55411e-14 -1.60022e-14 -83.1497 19.5842 6.55792 15.3032 -8.05566 -28.2151 0.0403009 5.72029 -0.806643 -1.80296e-09 -1.93603e-09 -1.1352e-09 -3.12482e-09 -3.34977e-09 -1.95249e-09 -1.80298e-09 -1.93603e-09 -1.13519e-09 -7.73091 5.47488 -0.417314 -1.80297e-09 -1.93603e-09 -1.13521e-09 -2.90554 0.965183 -0.102902 -1.80296e-09 -1.93603e-09 -1.1352e-09 -10.2786 0.731801 -0.0259123 -1.80296e-09 -1.93603e-09 -1.13521e-09 -2.22167 -0.733487 0.20892 -2.03217e-16 0.0 -3.88251e-19 6.54762 -17.2406 1.35358 -0.105472 28.0451 0.502759 -3.007 -16.7795 -6.96577 2.03217e-16 0.0 3.88251e-19 -0.795303 -18.3489 -7.14028 0.17822 29.6727 -0.530104 2.33718 -15.6408 5.31066
5.24833 83.4892 -196.737 -1.7785 1.6291 6.5453 6.25716 -0.525982 -5.65947 0.977509 -2.50584 -1.56546 -2.21676 -2.12974 -0.33302 0.877294 -9.90343 0.100581 -0.0 0.0 0.0 -0.0 0.0 0.0 7.4514e-14 5.05141e-14 9.44965e-15 82.0922 -2.15189 -6.90265 -10.4808 -4.32413 18.8191 -0.0214898 -4.05229 -0.570535 -5.40056e-10 2.47299e-10 1.30814e-09 -9.3355e-10 4.30153e-10 2.26307e-09 -5.40056e-10 2.473e-10 1.30813e-09 7.73091 5.47488 0.417314 -5.40057e-10 2.47301e-10 1.30814e-09 2.90554 0.965183 0.102902 -5.40054e-10 2.473e-10 1.30814e-09 10.2786 0.731801 0.0259123 -5.40066e-10 2.47304e-10 1.30816e-09 2.22167 -0.733487 -0.20892 7.44679e-14 5.05203e-14 9.26212e-15 -89.1671 20.9219 7.07754 16.0687 -8.44727 -30.2102 0.0500317 6.1725 -0.871115 -1.4696e-09 -1.90763e-09 -9.11562e-10 -2.54774e-09 -3.30137e-09 -1.56751e-09 -1.46962e-09 -1.90763e-09 -9.1155e-10 -7.73091 5.47488 -0.417314 -1.46961e-09 -1.90763e-09 -9.11567e-10 -2.90554 0.965183 -0.102902 -1.4696e-09 -1.90763e-09 -9.11564e-10 -10.2786 0.731801 -0.0259123 -1.4696e-09 -1.90763e-09 -9.11571e-10 -2.22167 -0.733487 0.20892 -2.03217e-16 0.0 -3.88251e-19 7.0616 -18.1028 1.47983 -0.13498 29.784 0.547181 -3.36349 -18.0435 -7.52263 2.03217e-16 0.0 3.88251e-19 -0.922262 -19.4714 -7.69868 0.219413 31.8902 -0.587237 2.62854 -16.9754 5.78411
5.23044 83.4884 -196.748 -1.8572 1.6208 6.5526 6.36952 -0.540026 -5.63324 0.924722 -2.46761 -1.55966 -2.17278 -2.04001 -0.321347 0.889145 -9.8476 0.108459 -0.0 0.0 0.0 -0.0 0.0 0.0 -1.826e-16 5.76287e-15 4.8724e-14 81.5476 -2.03388 -6.78682 -10.4261 -4.30301 18.7029 -0.0220434 -4.11816 -0.579836 2.84914e-10 6.81184e-10 1.7303e-09 4.89716e-10 1.18243e-09 2.99487e-09 2.84914e-10 6.81187e-10 1.73029e-09 7.73091 5.47488 0.417314 2.84914e-10 6.81186e-10 1.7303e-09 2.90554 0.965183 0.102902 2.84918e-10 6.81186e-10 1.73031e-09 10.2786 0.731801 0.0259123 2.84906e-10 6.81188e-10 1.73032e-09 2.22167 -0.733487 -0.20892 -1.87066e-16 5.76879e-15 4.85532e-14 -88.4819 20.7414 7.01302 15.9654 -8.38762 -29.9449 0.0501827 6.20202 -0.875293 -7.77558e-10 -1.65901e-09 -4.5417e-10 -1.34934e-09 -2.87227e-09 -7.80267e-10 -7.77568e-10 -1.65901e-09 -4.5416e-10 -7.73091 5.47488 -0.417314 -7.77562e-10 -1.65901e-09 -4.54176e-10 -2.90554 0.965183 -0.102902 -7.77562e-10 -1.65901e-09 -4.54174e-10 -10.2786 0.731801 -0.0259123 -7.77553e-10 -1.65901e-09 -4.54183e-10 -2.22167 -0.733487 0.20892 -2.03217e-16 0.0 -3.88251e-19 7.16381 -17.9933 1.49223 -0.136872 29.5815 0.542283 -3.32539 -17.8895 -7.47229 2.03217e-16 0.0 3.88251e-19 -0.761861 -19.3543 -7.64205 0.215017 31.6695 -0.581779 2.62124 -16.7953 5.81014
5.19159 83.4952 -196.726 -2.0125 1.5683 6.4713 6.3267 -0.537927 -5.43867 0.850498 -2.35803 -1.50638 -2.05519 -1.87994 -0.298637 0.858332 -9.50648 0.111655 -0.0 0.0 0.0 -0.0 0.0 0.0 -7.6345e-14 -4.24675e-14 8.4546e-14 78.6162 -1.85096 -6.46454 -10.1044 -4.16836 18.0337 -0.0207089 -4.0601 -0.571598 1.12356e-09 1.04054e-09 2.06984e-09 1.93681e-09 1.80548e-09 3.58361e-09 1.12356e-09 1.04054e-09 2.06983e-09 7.73091 5.47488 0.417314 1.12356e-09 1.04054e-09 2.06984e-09 2.90554 0.965183 0.102902 1.12357e-09 1.04054e-09 2.06984e-09 10.2786 0.731801 0.0259123 1.12356e-09 1.04054e-09 2.06985e-09 2.22167 -0.733487 -0.20892 -7.631e-14 -4.2462e-14 8.43903e-14 -85.1208 19.9625 6.71819 15.5176 -8.15027 -28.7858 0.0460719 6.04635 -0.853033 -2.37701e-11 -1.30475e-09 6.05348e-12 -4.40679e-11 -2.26041e-09 1.14242e-11 -2.37764e-11 -1.30475e-09 6.06143e-12 -7.73091 5.47488 -0.417314 -2.37708e-11 -1.30475e-09 6.04725e-12 -2.90554 0.965183 -0.102902 -2.37754e-11 -1.30475e-09 6.04844e-12 -10.2786 0.731801 -0.0259123 -2.3765e-11 -1.30475e-09 6.03838e-12 -2.22167 -0.733487 0.20892 -2.03217e-16 0.0 -3.88251e-19 7.08667 -17.4997 1.46334 -0.126929 28.6045 0.517606 -3.12834 -17.1633 -7.17752 2.03217e-16 0.0 3.88251e-19 -0.498885 -18.7422 -7.33182 0.192133 30.4716 -0.551165 2.49001 -16.0143 5.64909
5.13284 83.4965 -196.745 -2.2702 1.5385 6.4769 6.31965 -0.534661 -5.31618 0.803061 -2.29565 -1.47283 -1.96225 -1.76098 -0.281433 0.799357 -9.31198 0.109756 -0.0 0.0 0.0 -0.0 0.0 0.0 -1.23202e-13 -7.79259e-14 9.9442e-14 76.8687 -1.73072 -6.25716 -9.9092 -4.08643 17.6314 -0.0198066 -4.01448 -0.565133 1.64558e-09 1.10292e-09 2.17734e-09 2.83799e-09 1.91375e-09 3.77017e-09 1.64558e-09 1.10293e-09 2.17733e-09 7.73091 5.47488 0.417314 1.64558e-09 1.10293e-09 2.17735e-09 2.90554 0.965183 0.102902 1.64559e-09 1.10292e-09 2.17735e-09 10.2786 0.731801 0.0259123 1.64557e-09 1.10292e-09 2.17736e-09 2.22167 -0.733487 -0.20892 -1.2315e-13 -7.79205e-14 9.92929e-14 -83.1127 19.5047 6.54802 15.2476 -8.00653 -28.0999 0.0435145 5.94298 -0.83827 4.9482e-10 -9.59443e-10 2.38192e-10 8.53622e-10 -1.66371e-09 4.09758e-10 4.94815e-10 -9.59441e-10 2.38198e-10 -7.73091 5.47488 -0.417314 4.94821e-10 -9.5944e-10 2.38185e-10 -2.90554 0.965183 -0.102902 4.94813e-10 -9.5944e-10 2.38186e-10 -10.2786 0.731801 -0.0259123 4.94825e-10 -9.59437e-10 2.38176e-10 -2.22167 -0.733487 0.20892 -2.03217e-16 0.0 -3.88251e-19 7.06398 -17.2094 1.46617 -0.121371 28.0194 0.502961 -3.01222 -16.7104 -7.00278 2.03217e-16 0.0 3.88251e-19 -0.322157 -18.3796 -7.13115 0.178773 29.7573 -0.533433 2.41691 -15.5451 5.56365
